{
	"asset":{
		"generator":"Khronos glTF Blender I/O v4.4.55",
		"version":"2.0"
	},
	"scene":0,
	"scenes":[
		{
			"name":"Scene",
			"nodes":[
				0
			]
		}
	],
	"nodes":[
		{
			"mesh":0,
			"name":"HouseWithLShape1",
			"scale":[
				3.5790657997131348,
				3.5790657997131348,
				3.5790657997131348
			]
		}
	],
	"materials":[
		{
			"doubleSided":true,
			"name":"WoodPlankingNarrow.001",
			"pbrMetallicRoughness":{
				"baseColorTexture":{
					"index":0
				},
				"metallicFactor":0
			}
		},
		{
			"doubleSided":true,
			"name":"CorrugatedSheetMetal",
			"pbrMetallicRoughness":{
				"baseColorTexture":{
					"index":1
				},
				"metallicFactor":0.5,
				"roughnessFactor":0.800000011920929
			}
		},
		{
			"doubleSided":true,
			"name":"ThisWood",
			"pbrMetallicRoughness":{
				"baseColorTexture":{
					"index":2
				},
				"metallicFactor":0,
				"roughnessFactor":0.9210526347160339
			}
		},
		{
			"doubleSided":true,
			"name":"DirtyGlass",
			"pbrMetallicRoughness":{
				"baseColorTexture":{
					"index":3
				},
				"metallicFactor":0,
				"roughnessFactor":0.20000000298023224
			}
		},
		{
			"doubleSided":true,
			"name":"WhiteMetal",
			"pbrMetallicRoughness":{
				"baseColorTexture":{
					"index":4
				},
				"metallicFactor":0
			}
		},
		{
			"doubleSided":true,
			"name":"Purple",
			"pbrMetallicRoughness":{
				"baseColorTexture":{
					"index":5
				},
				"metallicFactor":0,
				"roughnessFactor":0.8999999761581421
			}
		},
		{
			"doubleSided":true,
			"name":"MetalGrungy",
			"pbrMetallicRoughness":{
				"baseColorTexture":{
					"index":6
				},
				"metallicFactor":0.5,
				"roughnessFactor":0.800000011920929
			}
		}
	],
	"meshes":[
		{
			"name":"Cube.023",
			"primitives":[
				{
					"attributes":{
						"POSITION":0,
						"NORMAL":1,
						"TEXCOORD_0":2
					},
					"indices":3,
					"material":0
				},
				{
					"attributes":{
						"POSITION":4,
						"NORMAL":5,
						"TEXCOORD_0":6
					},
					"indices":7,
					"material":1
				},
				{
					"attributes":{
						"POSITION":8,
						"NORMAL":9,
						"TEXCOORD_0":10
					},
					"indices":11,
					"material":2
				},
				{
					"attributes":{
						"POSITION":12,
						"NORMAL":13,
						"TEXCOORD_0":14
					},
					"indices":15,
					"material":3
				},
				{
					"attributes":{
						"POSITION":16,
						"NORMAL":17,
						"TEXCOORD_0":18
					},
					"indices":19,
					"material":4
				},
				{
					"attributes":{
						"POSITION":20,
						"NORMAL":21,
						"TEXCOORD_0":22
					},
					"indices":23,
					"material":5
				},
				{
					"attributes":{
						"POSITION":24,
						"NORMAL":25,
						"TEXCOORD_0":26
					},
					"indices":27,
					"material":6
				}
			]
		}
	],
	"textures":[
		{
			"sampler":0,
			"source":0
		},
		{
			"sampler":0,
			"source":1
		},
		{
			"sampler":0,
			"source":2
		},
		{
			"sampler":0,
			"source":3
		},
		{
			"sampler":0,
			"source":4
		},
		{
			"sampler":0,
			"source":5
		},
		{
			"sampler":0,
			"source":6
		}
	],
	"images":[
		{
			"mimeType":"image/png",
			"name":"Wood_05-128x128",
			"uri":"Wood_05-128x128.png"
		},
		{
			"mimeType":"image/png",
			"name":"Horror_Misc_13-128x128",
			"uri":"Horror_Misc_13-128x128.png"
		},
		{
			"mimeType":"image/png",
			"name":"Wood_06-128x128",
			"uri":"Wood_06-128x128.png"
		},
		{
			"mimeType":"image/png",
			"name":"Dirt_15-128x128",
			"uri":"Dirt_15-128x128.png"
		},
		{
			"mimeType":"image/png",
			"name":"Horror_Wall_07-128x128",
			"uri":"Horror_Wall_07-128x128.png"
		},
		{
			"mimeType":"image/png",
			"name":"Elements_17-128x128",
			"uri":"Elements_17-128x128.png"
		},
		{
			"mimeType":"image/png",
			"name":"Metal_04-128x128",
			"uri":"Metal_04-128x128.png"
		}
	],
	"accessors":[
		{
			"bufferView":0,
			"componentType":5126,
			"count":38,
			"max":[
				1,
				2.9776599407196045,
				1
			],
			"min":[
				-3,
				0,
				-3
			],
			"type":"VEC3"
		},
		{
			"bufferView":1,
			"componentType":5126,
			"count":38,
			"type":"VEC3"
		},
		{
			"bufferView":2,
			"componentType":5126,
			"count":38,
			"type":"VEC2"
		},
		{
			"bufferView":3,
			"componentType":5123,
			"count":84,
			"type":"SCALAR"
		},
		{
			"bufferView":4,
			"componentType":5126,
			"count":110,
			"max":[
				1.0694859027862549,
				3.024773359298706,
				1
			],
			"min":[
				-3.113600254058838,
				0,
				-3
			],
			"type":"VEC3"
		},
		{
			"bufferView":5,
			"componentType":5126,
			"count":110,
			"type":"VEC3"
		},
		{
			"bufferView":6,
			"componentType":5126,
			"count":110,
			"type":"VEC2"
		},
		{
			"bufferView":7,
			"componentType":5123,
			"count":219,
			"type":"SCALAR"
		},
		{
			"bufferView":8,
			"componentType":5126,
			"count":411,
			"max":[
				0.36791473627090454,
				1.2536325454711914,
				1.8153828382492065
			],
			"min":[
				-0.36791473627090454,
				0.007102906703948975,
				0.9631101489067078
			],
			"type":"VEC3"
		},
		{
			"bufferView":9,
			"componentType":5126,
			"count":411,
			"type":"VEC3"
		},
		{
			"bufferView":10,
			"componentType":5126,
			"count":411,
			"type":"VEC2"
		},
		{
			"bufferView":11,
			"componentType":5123,
			"count":1236,
			"type":"SCALAR"
		},
		{
			"bufferView":12,
			"componentType":5126,
			"count":160,
			"max":[
				1.0069069862365723,
				2.164769172668457,
				1.0127907991409302
			],
			"min":[
				-2.5364181995391846,
				0.7778605818748474,
				-2.44022274017334
			],
			"type":"VEC3"
		},
		{
			"bufferView":13,
			"componentType":5126,
			"count":160,
			"type":"VEC3"
		},
		{
			"bufferView":14,
			"componentType":5126,
			"count":160,
			"type":"VEC2"
		},
		{
			"bufferView":15,
			"componentType":5123,
			"count":312,
			"type":"SCALAR"
		},
		{
			"bufferView":16,
			"componentType":5126,
			"count":1745,
			"max":[
				1.0516504049301147,
				2.1924962997436523,
				1.037016749382019
			],
			"min":[
				-2.6949312686920166,
				0.7021132111549377,
				-2.598735809326172
			],
			"type":"VEC3"
		},
		{
			"bufferView":17,
			"componentType":5126,
			"count":1745,
			"type":"VEC3"
		},
		{
			"bufferView":18,
			"componentType":5126,
			"count":1745,
			"type":"VEC2"
		},
		{
			"bufferView":19,
			"componentType":5123,
			"count":3396,
			"type":"SCALAR"
		},
		{
			"bufferView":20,
			"componentType":5126,
			"count":5798,
			"max":[
				1.0564764738082886,
				2.1924962997436523,
				1.037016749382019
			],
			"min":[
				-2.7113451957702637,
				0.6917235851287842,
				-2.615149736404419
			],
			"type":"VEC3"
		},
		{
			"bufferView":21,
			"componentType":5126,
			"count":5798,
			"type":"VEC3"
		},
		{
			"bufferView":22,
			"componentType":5126,
			"count":5798,
			"type":"VEC2"
		},
		{
			"bufferView":23,
			"componentType":5123,
			"count":13236,
			"type":"SCALAR"
		},
		{
			"bufferView":24,
			"componentType":5126,
			"count":674,
			"max":[
				0.2511295676231384,
				3.1006598472595215,
				1.0694949626922607
			],
			"min":[
				-1.721176266670227,
				0.3078532814979553,
				-2.8852758407592773
			],
			"type":"VEC3"
		},
		{
			"bufferView":25,
			"componentType":5126,
			"count":674,
			"type":"VEC3"
		},
		{
			"bufferView":26,
			"componentType":5126,
			"count":674,
			"type":"VEC2"
		},
		{
			"bufferView":27,
			"componentType":5123,
			"count":1296,
			"type":"SCALAR"
		}
	],
	"bufferViews":[
		{
			"buffer":0,
			"byteLength":456,
			"byteOffset":0,
			"target":34962
		},
		{
			"buffer":0,
			"byteLength":456,
			"byteOffset":456,
			"target":34962
		},
		{
			"buffer":0,
			"byteLength":304,
			"byteOffset":912,
			"target":34962
		},
		{
			"buffer":0,
			"byteLength":168,
			"byteOffset":1216,
			"target":34963
		},
		{
			"buffer":0,
			"byteLength":1320,
			"byteOffset":1384,
			"target":34962
		},
		{
			"buffer":0,
			"byteLength":1320,
			"byteOffset":2704,
			"target":34962
		},
		{
			"buffer":0,
			"byteLength":880,
			"byteOffset":4024,
			"target":34962
		},
		{
			"buffer":0,
			"byteLength":438,
			"byteOffset":4904,
			"target":34963
		},
		{
			"buffer":0,
			"byteLength":4932,
			"byteOffset":5344,
			"target":34962
		},
		{
			"buffer":0,
			"byteLength":4932,
			"byteOffset":10276,
			"target":34962
		},
		{
			"buffer":0,
			"byteLength":3288,
			"byteOffset":15208,
			"target":34962
		},
		{
			"buffer":0,
			"byteLength":2472,
			"byteOffset":18496,
			"target":34963
		},
		{
			"buffer":0,
			"byteLength":1920,
			"byteOffset":20968,
			"target":34962
		},
		{
			"buffer":0,
			"byteLength":1920,
			"byteOffset":22888,
			"target":34962
		},
		{
			"buffer":0,
			"byteLength":1280,
			"byteOffset":24808,
			"target":34962
		},
		{
			"buffer":0,
			"byteLength":624,
			"byteOffset":26088,
			"target":34963
		},
		{
			"buffer":0,
			"byteLength":20940,
			"byteOffset":26712,
			"target":34962
		},
		{
			"buffer":0,
			"byteLength":20940,
			"byteOffset":47652,
			"target":34962
		},
		{
			"buffer":0,
			"byteLength":13960,
			"byteOffset":68592,
			"target":34962
		},
		{
			"buffer":0,
			"byteLength":6792,
			"byteOffset":82552,
			"target":34963
		},
		{
			"buffer":0,
			"byteLength":69576,
			"byteOffset":89344,
			"target":34962
		},
		{
			"buffer":0,
			"byteLength":69576,
			"byteOffset":158920,
			"target":34962
		},
		{
			"buffer":0,
			"byteLength":46384,
			"byteOffset":228496,
			"target":34962
		},
		{
			"buffer":0,
			"byteLength":26472,
			"byteOffset":274880,
			"target":34963
		},
		{
			"buffer":0,
			"byteLength":8088,
			"byteOffset":301352,
			"target":34962
		},
		{
			"buffer":0,
			"byteLength":8088,
			"byteOffset":309440,
			"target":34962
		},
		{
			"buffer":0,
			"byteLength":5392,
			"byteOffset":317528,
			"target":34962
		},
		{
			"buffer":0,
			"byteLength":2592,
			"byteOffset":322920,
			"target":34963
		}
	],
	"samplers":[
		{
			"magFilter":9728,
			"minFilter":9984
		}
	],
	"buffers":[
		{
			"byteLength":325512,
			"uri":"NightbloomHouse.bin"
		}
	]
}
